<svg width="30" height="30" viewBox="0 0 30 30" fill="none" xmlns="http://www.w3.org/2000/svg">
<path d="M25.7302 3.25686H22.5002V0.910197C22.5002 0.473531 22.1168 0.056864 21.6668 0.076864C21.447 0.0807174 21.2373 0.169752 21.0819 0.325205C20.9264 0.480658 20.8374 0.690388 20.8335 0.910197V3.25686H9.16685V0.910197C9.16685 0.473531 8.78351 0.056864 8.33352 0.076864C8.11371 0.0807174 7.90398 0.169752 7.74852 0.325205C7.59307 0.480658 7.50403 0.690388 7.50018 0.910197V3.25686H4.27018C3.16552 3.25819 2.10648 3.6976 1.32537 4.47871C0.544251 5.25983 0.104839 6.31887 0.103516 7.42353V25.7569C0.103516 28.0552 1.97352 29.9235 4.27018 29.9235H25.7285C28.0268 29.9235 29.8952 28.0552 29.8952 25.7569V7.42353C29.8943 6.31902 29.4553 5.25998 28.6744 4.47882C27.8936 3.69765 26.8347 3.25819 25.7302 3.25686ZM4.27018 4.92353H7.50018V5.9102C7.50018 6.34686 7.88351 6.76353 8.33352 6.74353C8.78518 6.72353 9.16685 6.37686 9.16685 5.9102V4.92353H20.8335V5.9102C20.8335 6.34686 21.2168 6.76353 21.6668 6.74353C22.1185 6.72353 22.5002 6.37686 22.5002 5.9102V4.92353H25.7285C27.1068 4.92353 28.2285 6.0452 28.2285 7.42353V10.0635H1.77018V7.42353C1.77018 6.0452 2.89185 4.92353 4.27018 4.92353ZM25.7302 28.2569H4.27018C2.89185 28.2569 1.77018 27.1352 1.77018 25.7569V11.7302H28.2285V25.7569C28.2285 26.4196 27.9654 27.0552 27.4969 27.524C27.0284 27.9928 26.3929 28.2564 25.7302 28.2569Z" fill="black"/>
</svg>
