<svg width="36" height="40" viewBox="0 0 36 40" fill="none" xmlns="http://www.w3.org/2000/svg">
<path d="M28.8209 13.3059C28.52 13.3059 28.2185 13.1914 27.9887 12.9615C27.5298 12.502 27.5298 11.7569 27.9887 11.2974L32.6339 6.6534L27.9887 2.00883C27.5298 1.54931 27.5298 0.804168 27.9887 0.344643C28.4482 -0.114881 29.1934 -0.114881 29.6529 0.344643L35.1296 5.82135C35.3502 6.04196 35.474 6.34159 35.474 6.65349C35.474 6.96539 35.3502 7.26502 35.1296 7.48563L29.6529 12.9617C29.4232 13.1914 29.1217 13.3059 28.8209 13.3059Z" fill="black"/>
<path d="M1.76337 19.9255C1.1139 19.9255 0.586914 19.3985 0.586914 18.749V11.6584C0.586914 8.2497 3.35957 5.47705 6.76828 5.47705H34.2975C34.947 5.47705 35.474 6.00404 35.474 6.6535C35.474 7.30297 34.947 7.82996 34.2975 7.82996H6.7682C4.65728 7.82996 2.93982 9.5475 2.93982 11.6583V18.749C2.93982 19.3986 2.41283 19.9255 1.76337 19.9255Z" fill="black"/>
<path d="M29.2912 34.5233H1.70184C1.05238 34.5233 0.525391 33.9963 0.525391 33.3468C0.525391 32.6973 1.05238 32.1704 1.70184 32.1704H29.2911C31.4026 32.1704 33.1201 30.4528 33.1201 28.342V21.111C33.1201 20.4616 33.6471 19.9346 34.2965 19.9346C34.946 19.9346 35.473 20.4616 35.473 21.111V28.342C35.4731 31.7506 32.6998 34.5233 29.2912 34.5233Z" fill="black"/>
<path d="M7.17864 40C6.87778 40 6.57631 39.8854 6.3465 39.6556L0.869793 34.1789C0.649186 33.9583 0.525391 33.6586 0.525391 33.3467C0.525391 33.0348 0.649186 32.7352 0.869793 32.5146L6.3465 27.0385C6.80603 26.579 7.55116 26.579 8.01069 27.0385C8.4696 27.498 8.4696 28.2432 8.01069 28.7027L3.36551 33.3466L8.01069 37.9912C8.4696 38.4507 8.4696 39.1959 8.01069 39.6554C7.78097 39.8855 7.4795 40 7.17864 40Z" fill="black"/>
</svg>
